<svg xmlns="http://www.w3.org/2000/svg" xmlns:xlink="http://www.w3.org/1999/xlink" width="500" zoomAndPan="magnify" viewBox="0 0 375 374.999991" height="500" preserveAspectRatio="xMidYMid meet" version="1.0"><defs><clipPath id="4e1ce06ae0"><path d="M 46.773438 183 L 357 183 L 357 368.96875 L 46.773438 368.96875 Z M 46.773438 183 " clip-rule="nonzero"/></clipPath></defs><path fill="#ffffff" d="M 111.019531 78.019531 C 116.921875 71.273438 124.53125 64.0625 131.691406 56.074219 C 134.8125 52.589844 138.039062 47.976562 141.367188 42.230469 C 146.445312 33.476562 149.714844 24.082031 151.183594 14.050781 C 151.558594 11.476562 151.933594 8.921875 152.300781 6.382812 C 152.320312 6.253906 152.394531 6.179688 152.527344 6.164062 C 152.65625 6.148438 152.746094 6.199219 152.796875 6.324219 C 156.683594 16.039062 159.75 24.753906 159.855469 35.820312 C 159.882812 38.828125 160.03125 41.898438 159.710938 44.773438 C 157.855469 61.375 149.871094 74.457031 141.855469 88.648438 C 136.097656 98.835938 132.746094 110.15625 131.792969 122.601562 C 130.621094 137.839844 131.242188 151.582031 137.3125 165.074219 C 139.386719 169.691406 142.03125 175.003906 145.242188 181.011719 C 151.363281 192.464844 157.398438 204.023438 162.679688 215.890625 C 162.761719 216.078125 162.71875 216.234375 162.550781 216.355469 C 162.382812 216.476562 162.222656 216.46875 162.066406 216.332031 C 160.792969 215.171875 159.480469 213.972656 158.085938 212.925781 C 147.210938 204.777344 137.828125 198.363281 127.699219 191.078125 C 108.359375 177.164062 89.824219 157.226562 89.175781 131.902344 C 88.652344 111.5625 98.09375 92.792969 111.019531 78.019531 Z M 111.019531 78.019531 " fill-opacity="1" fill-rule="nonzero"/><path fill="#ffffff" d="M 176.464844 204.527344 C 166.039062 194.921875 158.710938 183.414062 156.835938 169.203125 C 154.722656 153.164062 158.828125 136.554688 166.683594 122.535156 C 171.335938 114.246094 176.796875 106.46875 182.246094 98.691406 C 189.6875 88.085938 196.714844 76.253906 198.09375 63.390625 C 199.605469 49.207031 195.335938 33.878906 188.671875 21.367188 C 188.59375 21.222656 188.617188 21.09375 188.742188 20.984375 C 188.863281 20.875 188.992188 20.867188 189.128906 20.960938 C 205.542969 32.667969 217.140625 48.355469 219.597656 68.71875 C 221.632812 85.585938 214.519531 101.378906 202.15625 112.644531 C 197.433594 116.941406 192.328125 121.347656 188.25 125.894531 C 176.234375 139.316406 167.621094 155.09375 169.007812 173.726562 C 169.894531 185.65625 173.566406 196.660156 180.019531 206.738281 C 180.09375 206.855469 180.085938 206.964844 179.988281 207.0625 C 179.894531 207.164062 179.785156 207.179688 179.664062 207.109375 C 178.382812 206.378906 177.511719 205.503906 176.464844 204.527344 Z M 176.464844 204.527344 " fill-opacity="1" fill-rule="nonzero"/><path fill="#ffffff" d="M 201.539062 210.175781 C 191.1875 200.761719 184.9375 188.300781 187.378906 174.09375 C 190.886719 153.714844 208.046875 143 223.523438 132.277344 C 234.398438 124.746094 244.667969 113.558594 244.703125 99.550781 C 244.707031 99.371094 244.796875 99.265625 244.972656 99.230469 C 245.152344 99.195312 245.273438 99.261719 245.34375 99.429688 C 247.488281 104.871094 249.148438 111.367188 248.566406 117.207031 C 246.5625 137.378906 229.550781 146.890625 216.480469 159.308594 C 215.316406 160.414062 213.390625 162.550781 210.695312 165.71875 C 204.988281 172.429688 200.863281 180.402344 200.117188 189.261719 C 199.484375 196.769531 201.421875 205 204.390625 211.984375 C 204.441406 212.101562 204.417969 212.203125 204.320312 212.285156 C 204.226562 212.367188 204.121094 212.375 204.015625 212.308594 C 203.097656 211.742188 202.1875 210.765625 201.539062 210.175781 Z M 201.539062 210.175781 " fill-opacity="1" fill-rule="nonzero"/><g clip-path="url(#4e1ce06ae0)"><path fill="#ffffff" d="M 292.757812 234.71875 C 307.679688 221.632812 331.332031 222.597656 345.167969 236.761719 C 354.652344 246.476562 358.769531 260.613281 355.042969 274.21875 C 350.710938 290.042969 338.449219 302.84375 325.246094 311.65625 C 308.316406 322.953125 288.308594 330.03125 267.957031 332.816406 C 265.640625 333.132812 263.324219 333.433594 261.003906 333.726562 C 257.625 334.144531 254.375 333.417969 251.558594 336.023438 C 231.007812 355.011719 204.230469 367.421875 176.03125 368.457031 C 165.882812 368.828125 157.015625 368.390625 147.238281 366.414062 C 118.988281 360.722656 93.765625 343.734375 76.191406 321.160156 C 60.710938 301.28125 51.332031 278.90625 48.0625 254.03125 C 47.730469 251.53125 47.515625 248.664062 47.414062 245.4375 C 47.160156 237.34375 46.96875 228.136719 46.84375 217.816406 C 46.800781 214.347656 46.925781 211.191406 47.222656 208.351562 C 48.359375 197.425781 60.816406 192.980469 70.113281 190.429688 C 79.335938 187.902344 88.699219 186.039062 98.199219 184.84375 C 99.945312 184.621094 101.042969 184.191406 102.386719 185.710938 C 104.6875 188.308594 107 190.828125 109.316406 193.269531 C 109.390625 193.347656 109.410156 193.441406 109.371094 193.542969 C 109.332031 193.648438 109.257812 193.707031 109.148438 193.71875 C 99.054688 194.753906 89.179688 196.476562 79.523438 198.886719 C 75.667969 199.847656 72 201.273438 68.53125 203.15625 C 66.09375 204.480469 64.191406 206.167969 65.367188 209.042969 C 67.179688 213.46875 82.191406 216.953125 86.890625 217.816406 C 98.511719 219.953125 110.144531 221.25 121.914062 222.25 C 132.339844 223.132812 143.035156 223.695312 153.996094 223.929688 C 164.964844 224.171875 175 224.480469 185.207031 224.132812 C 190.175781 223.96875 195.140625 223.832031 200.109375 223.734375 C 207.683594 223.578125 215.507812 222.847656 223.113281 222.128906 C 234.316406 221.066406 245.515625 219.757812 256.546875 217.492188 C 261.789062 216.414062 269.53125 214.539062 273.765625 211.265625 C 277.304688 208.523438 274.925781 204.742188 271.558594 203.140625 C 267.421875 201.171875 263.195312 199.710938 258.878906 198.761719 C 250.34375 196.875 241.578125 195.445312 232.582031 194.46875 C 227.820312 193.949219 221.695312 193.761719 216.273438 193.203125 C 216.101562 193.1875 215.960938 193.105469 215.859375 192.964844 C 215.761719 192.824219 215.730469 192.667969 215.765625 192.496094 L 217.742188 183.863281 C 217.777344 183.707031 217.875 183.632812 218.035156 183.632812 C 224.703125 183.769531 232.964844 184.4375 238.042969 184.949219 C 250.523438 186.207031 262.992188 188.292969 274.976562 192.371094 C 280.375 194.207031 287.210938 197.621094 290.390625 202.171875 C 292.667969 205.425781 293.4375 209.535156 293.34375 213.527344 C 293.222656 218.488281 293.183594 223.449219 293.222656 228.414062 C 293.238281 230.511719 293.039062 232.585938 292.625 234.640625 C 292.59375 234.796875 292.636719 234.824219 292.757812 234.71875 Z M 329.917969 244.328125 C 324.9375 241.164062 318.144531 239.953125 312.445312 241.363281 C 301.496094 244.070312 293.972656 253.390625 291.109375 263.929688 C 290.257812 267.066406 289.398438 270.199219 288.535156 273.332031 C 283.882812 290.226562 275.839844 306.082031 265.335938 320.125 C 264.886719 320.722656 265.03125 320.960938 265.765625 320.832031 C 279.484375 318.511719 292.699219 313.988281 305.414062 307.261719 C 319.738281 299.679688 342.167969 282.511719 340.980469 264.035156 C 340.453125 255.871094 336.882812 248.753906 329.917969 244.328125 Z M 329.917969 244.328125 " fill-opacity="1" fill-rule="nonzero"/></g></svg>